<svg xmlns="http://www.w3.org/2000/svg" viewBox="0 0 64 64" fill="none">
  <rect width="64" height="64" rx="14" fill="#0f172a"/>
  <path d="M24 14 C 18 14 18 22 18 25 L 18 28 C 18 30 16 32 13 32 C 16 32 18 34 18 36 L 18 39 C 18 42 18 50 24 50" stroke="#a78bfa" stroke-width="4" stroke-linecap="round" stroke-linejoin="round" fill="none"/>
  <path d="M40 14 C 46 14 46 22 46 25 L 46 28 C 46 30 48 32 51 32 C 48 32 46 34 46 36 L 46 39 C 46 42 46 50 40 50" stroke="#7dd3fc" stroke-width="4" stroke-linecap="round" stroke-linejoin="round" fill="none"/>
  <circle cx="27" cy="32" r="2.5" fill="#e2e8f0"/>
  <circle cx="32" cy="32" r="2.5" fill="#e2e8f0"/>
  <circle cx="37" cy="32" r="2.5" fill="#e2e8f0"/>
</svg>
